<svg width="138" height="32" viewBox="0 0 138 32" fill="none" xmlns="http://www.w3.org/2000/svg">
<path d="M39.8642 7.16128C39.8642 5.69438 41.0079 4.55347 42.4783 4.55347C44.0031 4.55347 45.1468 5.64005 45.1468 7.16128C45.1468 8.6825 44.0031 9.76909 42.4783 9.76909C40.9534 9.76909 39.8642 8.6825 39.8642 7.16128ZM40.3544 11.6706H44.6022V26.4482H40.3544V11.6706Z" fill="white"/>
<path d="M47.1073 19.0594C47.1073 14.6587 50.5383 11.2903 55.1129 11.2903C58.1081 11.2903 60.6133 12.7028 61.9747 14.9847L58.2715 17.2122C57.6724 16.1256 56.4743 15.365 55.1129 15.365C53.0434 15.365 51.4641 16.9405 51.4641 19.0051C51.4641 21.0696 52.9889 22.6451 55.1129 22.6451C56.5288 22.6451 57.6724 21.9388 58.2715 20.7979L61.9747 23.0254C60.6133 25.3073 58.1081 26.7198 55.1129 26.7198C50.5383 26.7742 47.1073 23.4601 47.1073 19.0594Z" fill="white"/>
<path d="M78.4759 20.4176H67.4207C67.9653 22.0475 69.3812 23.0798 71.2328 23.0798C72.9211 23.0798 74.2826 22.3191 74.9361 21.4499L77.7679 23.8947C76.1886 25.6876 73.7924 26.7742 71.0694 26.7742C66.3315 26.7742 62.7916 23.4057 62.7916 18.9507C62.7916 14.6044 66.1681 11.2903 70.6882 11.2903C75.1539 11.2903 78.4759 14.6044 78.4759 19.1137C78.5848 19.494 78.5304 20.0373 78.4759 20.4176ZM67.4207 17.6468H74.0647C73.5746 16.0169 72.322 14.9847 70.7427 14.9847C69.1089 14.9304 67.8563 16.0169 67.4207 17.6468Z" fill="white"/>
<path d="M96.8832 19.0594C96.8832 23.4601 93.8334 26.8285 89.749 26.8285C87.9518 26.8285 86.427 26.1765 85.2833 24.9813V31.9898H81.0355V11.6706H85.2833V13.1375C86.427 11.9966 87.9518 11.2903 89.749 11.2903C93.8334 11.2903 96.8832 14.6587 96.8832 19.0594ZM92.5264 19.0594C92.5264 16.9949 91.0015 15.4193 88.8776 15.4193C86.8082 15.4193 85.2289 16.9949 85.2289 19.0594C85.2289 21.1239 86.7537 22.6995 88.8776 22.6995C91.0015 22.6995 92.5264 21.1239 92.5264 19.0594Z" fill="white"/>
<path d="M98.9526 7.16128C98.9526 5.69438 100.096 4.55347 101.567 4.55347C103.092 4.55347 104.235 5.64005 104.235 7.16128C104.235 8.6825 103.092 9.76909 101.567 9.76909C100.096 9.76909 98.9526 8.6825 98.9526 7.16128ZM99.4428 11.6706H103.691V26.4482H99.4428V11.6706Z" fill="white"/>
<path d="M106.196 19.0594C106.196 14.6587 109.627 11.2903 114.201 11.2903C117.197 11.2903 119.702 12.7028 121.063 14.9847L117.36 17.2122C116.761 16.1256 115.563 15.365 114.201 15.365C112.132 15.365 110.552 16.9405 110.552 19.0051C110.552 21.0696 112.077 22.6451 114.201 22.6451C115.617 22.6451 116.761 21.9388 117.36 20.7979L121.063 23.0254C119.702 25.3073 117.197 26.7198 114.201 26.7198C109.627 26.7742 106.196 23.4601 106.196 19.0594Z" fill="white"/>
<path d="M128.524 21.6672L127.435 22.8624V26.4482H123.187V5.53137H127.435V17.1579L132.336 11.6706H137.782L131.519 18.4618L138 26.4482H132.391L128.524 21.6672Z" fill="white"/>
<path d="M16.011 31.9457C24.8537 31.9457 32.0221 24.7944 32.0221 15.9728C32.0221 7.15128 24.8537 0 16.011 0C7.16839 0 0 7.15128 0 15.9728C0 24.7944 7.16839 31.9457 16.011 31.9457Z" fill="#BDEBFF"/>
<path d="M23.1997 11.9525L22.2739 11.0289C22.0016 10.7573 21.5114 10.7573 21.1847 11.0289L8.82242 23.416C8.55012 23.6877 8.55012 24.1766 8.82242 24.5026L9.74823 25.4262C10.0205 25.6979 10.5107 25.6979 10.8374 25.4262L23.1997 13.0391C23.472 12.7131 23.472 12.2242 23.1997 11.9525Z" fill="#ACDBEA"/>
<path d="M10.2928 26.2411C9.91161 26.2411 9.58485 26.0781 9.31256 25.8608L8.38675 24.9372C7.84215 24.3939 7.84215 23.5789 8.38675 23.0357L20.749 10.6486C21.2936 10.1053 22.165 10.1053 22.6551 10.6486L23.5809 11.5722C23.8532 11.8438 23.9621 12.1698 23.9621 12.5501C23.9621 12.9304 23.7987 13.2564 23.5809 13.528L11.2186 25.8065C11.0008 26.0781 10.674 26.2411 10.2928 26.2411ZM21.7293 11.4092C21.6748 11.4092 21.6748 11.4092 21.6204 11.4635L9.2581 23.8506C9.20364 23.9049 9.20364 24.0136 9.2581 24.0679L10.1839 24.9915C10.2384 25.0458 10.2384 25.0458 10.2928 25.0458C10.3473 25.0458 10.3473 25.0458 10.4017 24.9915L22.764 12.6044C22.8185 12.5501 22.8185 12.5501 22.8185 12.4958C22.8185 12.4414 22.8185 12.4414 22.764 12.3871L21.8382 11.4635C21.7837 11.4092 21.7293 11.4092 21.7293 11.4092Z" fill="#407BEC"/>
<path d="M27.8832 13.9626C24.5067 9.1816 21.2392 7.22574 18.8974 6.4108C18.0261 6.13915 17.4815 7.22574 18.1895 7.76904C22.1105 10.6485 24.779 14.1256 25.8682 15.7555C26.1405 16.1901 26.794 16.1901 27.1208 15.8098L27.8832 14.8862C28.0466 14.6145 28.1011 14.2342 27.8832 13.9626Z" fill="#61C6FF"/>
<path d="M26.4673 16.6791H26.4128C25.9771 16.6791 25.5959 16.4618 25.3236 16.0815C24.3434 14.6689 21.6749 11.1375 17.8082 8.25804C17.2636 7.8234 17.1003 7.11712 17.427 6.5195C17.7538 5.92188 18.4617 5.65023 19.1153 5.86755C23.3086 7.28011 26.4673 10.8658 28.4278 13.6366C28.809 14.1256 28.7546 14.8319 28.3734 15.3209L27.6109 16.2445C27.2842 16.5161 26.9029 16.6791 26.4673 16.6791ZM18.6251 6.95414C18.5707 6.95414 18.5162 6.95414 18.4618 7.06279C18.4073 7.22578 18.4618 7.28011 18.5162 7.28011C22.4373 10.1596 25.1058 13.5823 26.3039 15.4295C26.3584 15.4838 26.4128 15.4838 26.4673 15.4838C26.5217 15.4838 26.5762 15.4838 26.6307 15.4295L27.3931 14.5059C27.4475 14.4516 27.4475 14.3429 27.3931 14.2886C24.0711 9.50761 20.8035 7.66042 18.6796 6.95414H18.6251Z" fill="#407BEC"/>
<path d="M23.3086 23.3616L10.8374 11.0288C10.5651 10.7572 10.075 10.7572 9.74823 11.0288L8.82242 11.9524C8.55012 12.2241 8.55012 12.713 8.82242 13.039L21.2391 25.3718C21.5114 25.6434 22.0016 25.6434 22.3283 25.3718L23.2541 24.4482C23.5809 24.1222 23.5809 23.6332 23.3086 23.3616Z" fill="#BDEBFF"/>
<path d="M21.8382 26.1868C21.457 26.1868 21.1302 26.0238 20.8579 25.8065L8.44121 13.4737C8.16892 13.202 8.06 12.8761 8.06 12.4958C8.06 12.1155 8.22338 11.7895 8.44121 11.5178L9.36702 10.5942C9.91162 10.0509 10.7285 10.0509 11.2731 10.5942L23.6898 22.927C24.2344 23.4703 24.2344 24.2852 23.6898 24.8285L22.764 25.7521C22.5462 26.0238 22.2194 26.1868 21.8382 26.1868ZM10.3473 11.4092C10.2928 11.4092 10.2928 11.4092 10.2384 11.4635L9.2581 12.4414C9.2581 12.4414 9.2581 12.4958 9.2581 12.5501C9.2581 12.6044 9.2581 12.6044 9.31256 12.6588L21.7293 24.9915C21.7838 24.9915 21.7838 24.9915 21.8382 24.9915C21.8927 24.9915 21.8927 24.9915 21.9471 24.9372L22.8729 24.0136C22.9274 23.9593 22.9274 23.8506 22.8729 23.7963L10.4562 11.4635C10.4018 11.4635 10.3473 11.4092 10.3473 11.4092Z" fill="#407BEC"/>
<path d="M13.1792 6.41087C10.8374 7.22581 7.51541 9.18167 4.19339 13.9627C3.97556 14.2343 4.03002 14.6146 4.24785 14.8863L5.01028 15.8099C5.33704 16.1902 5.99055 16.1902 6.26285 15.7555C7.35204 14.18 10.0205 10.6486 13.8872 7.7691C14.5951 7.28014 13.9961 6.13922 13.1792 6.41087Z" fill="#61C6FF"/>
<path d="M5.60933 16.7334C5.17365 16.7334 4.79244 16.5704 4.52014 16.2445L3.75771 15.3209C3.37649 14.8319 3.32204 14.1799 3.70325 13.6367C5.66379 10.8659 8.82243 7.22579 12.9613 5.81323C13.6149 5.59591 14.3228 5.86756 14.6496 6.46518C14.9763 7.0628 14.813 7.82341 14.2684 8.20372C10.4018 11.0832 7.73324 14.6689 6.75297 16.0815C6.48068 16.4618 6.09946 16.6791 5.66379 16.6791C5.66379 16.7334 5.60933 16.7334 5.60933 16.7334ZM13.4515 6.95414C13.397 6.95414 13.397 6.95414 13.397 6.95414C11.2731 7.66043 8.06 9.50762 4.73798 14.2886C4.68352 14.3429 4.68352 14.4516 4.73798 14.5059L5.50041 15.4295C5.55487 15.4839 5.60933 15.4839 5.66379 15.4839C5.71825 15.4839 5.77271 15.4839 5.82717 15.4295C7.07973 13.6367 9.69378 10.1596 13.6149 7.28012C13.6693 7.28012 13.7238 7.17146 13.6693 7.0628C13.5059 7.00847 13.4515 6.95414 13.4515 6.95414Z" fill="#407BEC"/>
<path d="M17.3726 10.0509L16.3923 8.96436C16.1745 8.69271 15.7388 8.69271 15.5209 8.96436L14.5407 10.1053C14.3773 10.2683 14.3228 10.5399 14.4318 10.7572L15.3576 12.7131C15.5754 13.1477 16.1745 13.1477 16.3923 12.7131L17.427 10.7572C17.5359 10.4856 17.5359 10.2139 17.3726 10.0509Z" fill="#61C6FF"/>
</svg>
